<svg xmlns="http://www.w3.org/2000/svg" viewBox="0 0 168 168">
  <circle fill="#1ED760" cx="84" cy="84" r="84"/>
  <path fill="#fff" d="M120.5 115.4c-1.6 2.6-5 3.4-7.6 1.8-20.9-12.8-47.3-15.7-78.5-8.6-3 0.7-6.1-1.2-6.8-4.2s1.2-6.1 4.2-6.8c34.8-7.9 65.3-4.5 89.2 9.9 2.6 1.5 3.5 4.9 1.9 7.9zm10.7-22.6c-2 3.2-6.3 4.2-9.5 2.2-23.9-14.7-60.4-19-88.5-10.3-3.6 1.1-7.4-1-8.5-4.6s1-7.4 4.6-8.5c33.5-10.1 75-5.4 102.3 11.4 3.2 2 4.2 6.3 2.2 9.8zm0.8-24.4C99.7 53.8 60.8 52 33.2 60.2c-4.1 1.3-8.5-1-9.8-5.1s1-8.5 5.1-9.8c32.4-10 76.5-8 111.2 12 3.7 2.1 5 6.9 2.9 10.6s-6.9 5-10.6 2.9z"/>
</svg>
